<svg xmlns="http://www.w3.org/2000/svg" width="900" height="520"><rect width="100%" height="100%" fill="white"/><text x="50" y="55" font-family="Arial" font-size="30" font-weight="bold">Confusion Matrix — Logistic Regression</text><g font-family="Arial" font-size="22" text-anchor="middle"><rect x="300" y="130" width="110" height="110" fill="#2f80ed"/><text x="355" y="195">111</text><rect x="410" y="130" width="110" height="110" fill="#74aaf1"/><text x="465" y="195">108</text><rect x="520" y="130" width="110" height="110" fill="#438eea"/><text x="575" y="195">119</text><rect x="300" y="240" width="110" height="110" fill="#86b6f3"/><text x="355" y="305">102</text><rect x="410" y="240" width="110" height="110" fill="#5f9ff0"/><text x="465" y="305">110</text><rect x="520" y="240" width="110" height="110" fill="#438eea"/><text x="575" y="305">118</text><rect x="300" y="350" width="110" height="110" fill="#72a9f1"/><text x="355" y="415">106</text><rect x="410" y="350" width="110" height="110" fill="#4892eb"/><text x="465" y="415">117</text><rect x="520" y="350" width="110" height="110" fill="#64a1ef"/><text x="575" y="415">109</text></g></svg>