<svg xmlns="http://www.w3.org/2000/svg" width="900" height="520"><rect width="100%" height="100%" fill="white"/><text x="50" y="55" font-family="Arial" font-size="30" font-weight="bold">Confusion Matrix — CatBoost</text><g font-family="Arial" font-size="22" text-anchor="middle"><rect x="300" y="130" width="110" height="110" fill="#2f80ed"/><text x="355" y="195">151</text><rect x="410" y="130" width="110" height="110" fill="#a9caf7"/><text x="465" y="195">87</text><rect x="520" y="130" width="110" height="110" fill="#86b6f3"/><text x="575" y="195">100</text><rect x="300" y="240" width="110" height="110" fill="#4d95ec"/><text x="355" y="305">133</text><rect x="410" y="240" width="110" height="110" fill="#aacbf8"/><text x="465" y="305">86</text><rect x="520" y="240" width="110" height="110" fill="#72a9f1"/><text x="575" y="305">111</text><rect x="300" y="350" width="110" height="110" fill="#3d88e8"/><text x="355" y="415">143</text><rect x="410" y="350" width="110" height="110" fill="#76acf2"/><text x="465" y="415">109</text><rect x="520" y="350" width="110" height="110" fill="#b6d3f9"/><text x="575" y="415">80</text></g></svg>